<?xml version="1.0" standalone="no"?>
<!DOCTYPE svg PUBLIC "-//W3C//DTD SVG 20010904//EN"
 "http://www.w3.org/TR/2001/REC-SVG-20010904/DTD/svg10.dtd">
<svg version="1.0" xmlns="http://www.w3.org/2000/svg"
 width="707.000000pt" height="707.000000pt" viewBox="0 0 707.000000 707.000000"
 preserveAspectRatio="xMidYMid meet">
<metadata>
Created by potrace 1.14, written by Peter Selinger 2001-2017
</metadata>
<g transform="translate(0.000000,707.000000) scale(0.100000,-0.100000)"
fill="#000000" stroke="none">
<path d="M3320 6028 c0 -3 -9 -4 -20 -1 -11 3 -20 1 -20 -5 0 -5 -26 -9 -60
-8 -33 0 -62 -3 -64 -9 -3 -5 -5 -5 -5 2 -1 8 -10 9 -28 4 -16 -4 -34 -6 -42
-3 -8 3 -11 0 -7 -6 3 -6 2 -13 -3 -16 -5 -4 -12 -2 -16 4 -3 5 -11 10 -16 10
-6 0 -8 -3 -6 -7 3 -5 -13 -9 -35 -10 -23 0 -43 -5 -47 -11 -3 -5 -21 -8 -38
-6 -18 1 -33 -2 -33 -8 0 -5 -4 -7 -9 -3 -5 3 -12 1 -15 -3 -3 -5 -21 -8 -41
-7 -25 1 -35 -3 -35 -13 0 -10 -9 -13 -30 -10 -18 3 -31 0 -34 -9 -3 -7 -19
-13 -36 -13 -16 0 -30 -5 -30 -11 0 -5 -4 -8 -9 -4 -5 3 -12 1 -16 -4 -3 -6
-12 -8 -20 -4 -8 3 -15 0 -15 -6 0 -6 -9 -11 -19 -11 -11 0 -23 -5 -26 -10 -4
-6 -11 -8 -16 -5 -5 4 -9 2 -9 -3 0 -5 -10 -9 -22 -8 -13 0 -22 -4 -21 -10 1
-6 -8 -11 -20 -10 -12 0 -21 -4 -20 -10 1 -7 -3 -11 -10 -11 -34 1 -48 -4 -41
-15 5 -8 2 -9 -9 -5 -10 3 -17 2 -17 -4 0 -6 -5 -7 -10 -4 -6 3 -13 -1 -16 -9
-3 -9 -10 -14 -14 -11 -5 3 -14 0 -22 -7 -7 -7 -20 -14 -28 -16 -8 -2 -18 -8
-21 -14 -4 -6 -14 -8 -23 -5 -9 4 -15 1 -13 -6 1 -7 -4 -11 -10 -10 -7 2 -13
-4 -13 -12 0 -8 -3 -14 -7 -13 -12 2 -63 -24 -63 -33 0 -4 -11 -10 -25 -13
-14 -4 -23 -11 -20 -16 3 -6 -1 -10 -9 -10 -9 0 -16 -4 -16 -10 0 -5 -7 -10
-15 -10 -9 0 -27 -12 -40 -26 -14 -15 -25 -23 -25 -19 0 5 -7 0 -15 -11 -8
-10 -15 -15 -15 -10 0 5 -9 -2 -21 -15 -12 -13 -25 -23 -30 -22 -5 2 -9 -3 -9
-10 0 -13 -31 -39 -46 -40 -5 -1 -42 -34 -81 -74 -40 -40 -77 -73 -83 -73 -5
0 -9 -3 -9 -7 3 -21 -2 -33 -13 -31 -7 2 -12 -3 -10 -9 1 -7 -4 -13 -12 -13
-8 0 -18 -5 -22 -12 -4 -7 -3 -8 4 -4 7 4 12 2 12 -3 0 -6 -7 -11 -16 -11 -8
0 -13 -4 -9 -9 3 -5 -4 -12 -15 -16 -11 -3 -19 -10 -17 -14 1 -4 -12 -22 -30
-38 -18 -17 -30 -33 -28 -35 3 -3 -8 -19 -24 -36 -16 -16 -27 -33 -24 -36 3
-3 -2 -8 -11 -12 -9 -3 -14 -10 -11 -14 3 -4 -2 -13 -10 -20 -8 -7 -15 -19
-15 -27 0 -8 -4 -11 -10 -8 -5 3 -10 -1 -10 -9 0 -9 -5 -16 -10 -16 -6 0 -9
-3 -9 -7 4 -22 -3 -33 -18 -33 -14 0 -15 -2 -4 -9 10 -7 9 -11 -5 -22 -11 -8
-19 -21 -19 -29 0 -8 -6 -14 -13 -12 -7 1 -12 -8 -12 -23 0 -14 -5 -25 -11
-25 -5 0 -7 -4 -4 -10 3 -5 -1 -10 -9 -10 -10 0 -13 -6 -10 -15 4 -8 -1 -17
-10 -21 -9 -3 -16 -10 -16 -16 0 -5 6 -6 13 -2 6 4 0 -6 -14 -22 -14 -16 -24
-39 -24 -51 1 -12 -4 -24 -12 -28 -8 -3 -13 -12 -10 -19 3 -8 0 -16 -6 -19 -7
-3 -14 -18 -15 -33 -1 -16 -7 -30 -12 -32 -6 -2 -10 -10 -10 -17 0 -7 -7 -25
-14 -41 -8 -15 -12 -32 -9 -37 3 -6 0 -15 -8 -21 -8 -6 -15 -19 -16 -28 -2
-43 -3 -49 -11 -44 -5 3 -8 -8 -7 -24 1 -17 -3 -30 -9 -30 -6 0 -4 -5 4 -10
13 -8 13 -10 -2 -10 -11 0 -16 -6 -13 -20 2 -11 0 -20 -6 -20 -11 0 -7 -22 6
-32 6 -5 5 -8 -3 -8 -7 0 -10 -4 -7 -10 3 -5 2 -10 -3 -10 -5 0 -12 -9 -15
-20 -3 -13 -1 -18 5 -13 7 4 8 1 3 -7 -12 -19 -12 -54 0 -62 6 -5 3 -8 -6 -8
-9 0 -20 -7 -23 -16 -4 -10 -2 -13 7 -8 9 6 9 4 1 -7 -6 -8 -10 -32 -9 -54 1
-22 -4 -51 -10 -65 -9 -18 -11 -107 -10 -300 2 -305 2 -293 13 -286 4 2 8 -24
7 -60 0 -35 4 -64 9 -64 4 0 2 -8 -5 -17 -10 -11 -10 -14 -2 -9 9 4 14 1 15
-11 2 -33 3 -38 11 -50 5 -8 4 -13 -3 -13 -6 0 -4 -9 5 -23 8 -13 12 -27 8
-30 -3 -4 -1 -7 7 -7 10 0 10 -3 1 -14 -8 -10 -9 -16 -1 -21 6 -3 8 -11 5 -16
-4 -5 1 -12 10 -15 12 -5 13 -9 4 -20 -6 -8 -7 -14 -2 -14 5 0 9 -10 10 -22 1
-11 6 -24 10 -27 4 -3 8 -15 7 -26 0 -11 6 -28 14 -37 8 -10 12 -24 9 -32 -4
-9 0 -22 8 -30 9 -8 16 -26 17 -40 1 -13 6 -22 10 -20 7 4 13 -35 9 -58 0 -5
5 -7 12 -5 6 1 11 -4 9 -11 -1 -7 5 -20 13 -28 8 -9 13 -20 9 -25 -3 -5 2 -16
10 -25 9 -9 14 -20 11 -25 -4 -5 -1 -9 5 -9 6 0 8 -5 5 -10 -3 -6 0 -13 9 -16
8 -3 12 -12 9 -20 -3 -8 0 -14 7 -14 6 0 8 -4 5 -10 -3 -6 -2 -10 3 -10 5 0
15 -13 22 -30 7 -16 16 -30 21 -30 4 0 6 -9 4 -20 -2 -13 2 -20 11 -20 8 0 14
-7 14 -15 0 -8 5 -15 10 -15 6 0 10 -7 10 -16 0 -9 12 -28 27 -42 16 -13 22
-21 16 -18 -22 12 -14 -3 18 -33 17 -17 28 -34 25 -39 -3 -5 6 -18 19 -28 14
-10 25 -24 25 -31 0 -6 25 -36 55 -67 30 -30 55 -60 55 -66 0 -6 4 -9 9 -6 5
3 8 -2 7 -12 0 -9 5 -16 12 -15 6 2 12 -6 12 -17 0 -11 6 -19 13 -17 6 1 11
-4 10 -10 -2 -7 0 -12 5 -11 11 3 97 -84 94 -95 -2 -6 4 -4 13 3 13 11 15 10
10 -2 -3 -8 2 -21 11 -29 12 -9 15 -10 10 -1 -4 6 -2 12 3 12 6 0 11 -7 11
-15 0 -8 5 -15 12 -15 6 0 30 -20 52 -43 23 -25 47 -42 55 -39 10 3 12 0 8
-12 -4 -11 -3 -15 4 -10 6 3 21 -5 34 -20 12 -14 25 -23 29 -19 3 3 6 1 6 -5
0 -7 6 -11 13 -9 6 1 11 -4 9 -11 -1 -8 2 -11 8 -7 5 3 13 -1 16 -10 4 -9 13
-14 20 -11 8 3 14 1 14 -5 0 -6 5 -7 10 -4 6 3 10 -1 10 -10 0 -9 4 -13 10
-10 6 3 10 1 10 -4 0 -6 9 -11 20 -11 11 0 20 -7 20 -16 0 -8 5 -12 10 -9 6 3
10 1 10 -4 0 -6 9 -11 20 -11 11 0 20 -4 20 -10 0 -5 8 -10 19 -10 10 0 24 -7
31 -15 7 -8 16 -12 21 -9 5 3 9 0 9 -5 0 -6 6 -11 14 -11 7 0 19 -7 26 -15 7
-8 23 -15 36 -15 14 0 24 -6 24 -14 0 -8 8 -13 18 -12 9 2 23 -4 30 -13 10
-12 12 -12 6 -1 -7 13 -5 13 9 2 9 -8 21 -11 27 -7 5 3 10 -1 10 -9 0 -9 3
-15 8 -15 29 5 52 -3 52 -18 0 -15 2 -16 10 -3 9 13 10 13 10 0 0 -13 1 -13
10 0 6 10 10 11 10 3 0 -7 6 -12 13 -10 6 1 11 -3 10 -8 -1 -6 11 -10 25 -9
15 0 29 -3 32 -7 3 -4 17 -9 30 -11 14 -2 32 -8 40 -13 8 -5 30 -10 48 -11 19
0 38 -7 42 -15 5 -7 12 -10 16 -6 4 4 13 2 20 -4 8 -6 14 -7 18 0 4 6 21 1 43
-12 20 -11 34 -17 30 -11 -4 7 7 10 28 10 19 -1 35 -4 35 -8 0 -5 9 -8 20 -8
11 0 20 -4 20 -8 0 -10 30 -9 48 2 6 4 12 4 12 -1 0 -4 19 -8 43 -8 23 0 48
-4 55 -9 15 -11 442 -14 435 -3 -4 7 7 9 65 10 17 0 32 5 32 10 0 5 6 4 14 -2
8 -7 17 -8 19 -4 7 10 48 10 65 -1 8 -4 10 -2 6 8 -4 10 0 14 13 12 10 -2 26
1 37 6 13 7 21 6 26 -1 5 -9 10 -8 19 3 7 8 20 12 28 9 10 -4 14 -2 10 4 -4 6
4 9 20 7 15 -1 36 2 47 8 11 6 32 12 46 12 14 1 35 8 48 15 13 7 30 10 38 7 8
-3 17 1 20 8 3 8 14 13 25 11 10 -2 19 0 19 5 0 5 7 6 17 3 12 -5 14 -3 8 7
-6 10 0 12 24 8 28 -4 35 1 33 23 -1 3 15 5 34 4 22 -1 34 2 34 11 0 7 6 11
14 8 7 -3 22 3 31 13 10 10 20 17 22 16 9 -8 33 -1 28 7 -3 5 0 11 7 11 25 2
33 5 61 19 15 7 27 17 27 21 0 5 6 6 14 3 7 -3 16 2 19 10 4 9 15 13 26 11 11
-2 20 -1 18 3 -1 4 3 8 8 10 6 2 18 10 27 19 9 8 22 12 29 7 8 -4 10 -3 5 4
-4 7 3 17 18 24 14 6 26 15 26 19 0 5 7 6 15 3 10 -4 15 0 15 11 0 9 4 13 10
10 5 -3 17 3 27 15 10 11 23 20 30 20 7 0 13 5 13 10 0 6 6 10 14 10 7 0 22
11 32 25 10 14 23 25 28 25 5 0 17 9 27 21 9 11 20 20 23 20 18 -2 26 0 23 7
-3 9 40 52 54 52 5 0 7 4 4 10 -4 6 5 10 21 10 15 0 25 3 22 6 -4 3 28 40 70
81 43 42 77 81 77 87 1 6 7 10 14 8 8 -2 11 3 8 13 -4 10 -1 15 10 15 9 0 14
3 10 6 -3 3 14 25 39 49 28 28 40 45 32 48 -8 3 -5 6 5 6 10 1 15 6 12 11 -3
6 1 13 9 16 9 3 16 13 16 22 0 8 3 12 7 9 3 -4 12 -2 20 4 11 10 11 15 1 27
-8 9 -8 13 -2 9 7 -4 23 11 40 36 15 23 35 48 43 55 12 10 12 12 1 12 -9 0 -7
5 6 15 10 8 15 15 10 15 -6 0 -2 6 8 13 9 7 18 20 20 30 1 9 11 24 22 33 10 8
13 13 7 9 -9 -4 -11 -1 -7 9 3 9 11 13 17 9 6 -4 8 0 4 10 -3 10 -2 17 3 17 5
0 12 11 16 25 3 14 10 25 16 25 5 0 6 4 3 10 -3 6 -1 10 5 10 6 0 9 4 5 9 -3
5 1 15 8 23 7 7 12 20 12 28 0 8 4 18 10 22 10 7 11 11 14 44 0 9 6 12 13 8 8
-5 9 -2 5 9 -4 10 0 20 11 26 14 8 14 10 2 11 -13 0 -13 2 -1 9 8 5 12 18 8
30 -3 12 -1 18 4 15 11 -6 28 36 22 52 -2 6 3 14 11 17 9 4 13 15 11 28 -3 13
2 30 10 39 8 8 14 24 15 35 1 47 5 63 14 58 5 -4 7 1 3 10 -3 9 -2 19 4 23 6
4 6 11 -2 20 -11 13 -5 19 16 14 5 -1 7 2 3 5 -4 4 -3 17 3 28 8 15 8 18 -1
12 -9 -6 -9 -3 -1 13 8 15 8 23 0 27 -6 5 -4 12 8 22 10 8 11 11 3 7 -12 -7
-13 -5 -3 8 7 8 10 18 6 21 -3 4 -2 7 3 7 5 0 9 31 9 69 0 42 3 69 9 68 7 -1
11 96 11 281 0 155 -3 282 -8 282 -4 0 -5 5 -2 10 3 6 0 10 -7 10 -9 0 -9 3 2
10 8 5 10 10 4 10 -7 0 -10 26 -10 69 1 48 -2 67 -10 64 -8 -3 -11 12 -10 47
1 29 -3 54 -10 58 -17 10 -22 35 -12 55 6 11 5 17 -3 17 -6 0 -9 7 -5 15 3 9
0 15 -8 15 -7 0 -13 7 -13 15 0 8 5 15 11 15 7 0 7 3 1 8 -5 4 -17 16 -25 26
-13 18 -13 19 0 11 13 -8 13 -6 2 8 -8 9 -11 20 -8 26 4 5 -1 17 -10 25 -9 9
-13 23 -10 31 3 8 -1 21 -9 29 -8 8 -15 26 -15 39 0 14 -7 30 -15 37 -8 7 -13
16 -10 20 3 5 -1 15 -9 23 -8 8 -12 18 -8 21 3 4 2 10 -3 14 -12 8 -60 103
-60 117 0 6 -7 15 -15 22 -8 6 -12 15 -8 19 4 4 0 14 -10 23 -9 9 -18 23 -20
31 -2 8 -8 17 -13 18 -5 2 -9 14 -9 27 0 15 -7 26 -20 30 -13 4 -20 15 -20 31
0 14 -4 22 -10 19 -5 -3 -10 2 -10 13 0 10 -11 29 -25 42 -13 12 -22 27 -19
31 3 5 -2 9 -11 9 -9 0 -14 4 -10 9 3 5 -5 17 -17 25 -12 9 -19 16 -14 16 5 0
-2 10 -15 23 -13 13 -25 30 -27 38 -2 7 -10 19 -17 25 -8 6 -11 15 -7 19 4 5
2 5 -4 2 -6 -4 -24 9 -39 28 -16 18 -32 32 -37 29 -4 -3 -5 3 -1 12 4 12 3 15
-5 10 -7 -4 -12 -1 -12 9 0 19 -25 47 -34 38 -3 -4 -6 0 -6 8 0 16 -40 55 -52
51 -5 -1 -8 5 -8 15 0 9 -3 14 -6 10 -3 -3 -14 2 -23 11 -10 10 -27 23 -39 31
-11 8 -19 18 -16 23 3 4 0 8 -7 8 -6 0 -26 15 -43 33 -17 17 -34 31 -38 29 -5
-1 -8 2 -8 8 0 5 -9 10 -21 10 -11 0 -18 4 -15 9 6 9 -52 57 -65 54 -4 -2 -17
9 -28 23 -11 14 -25 23 -31 19 -5 -3 -10 -2 -10 3 0 6 -11 13 -25 16 -14 4
-24 12 -22 18 1 7 -4 13 -10 14 -7 1 -18 2 -24 3 -5 0 -8 5 -5 10 3 5 -1 11
-9 15 -8 3 -15 0 -15 -7 0 -7 -9 -1 -20 13 -11 14 -20 21 -20 15 0 -5 -4 -4
-9 4 -5 8 -17 16 -26 17 -9 1 -23 11 -31 21 -10 14 -13 15 -14 3 0 -13 -2 -13
-9 -1 -5 8 -18 16 -28 17 -9 2 -19 8 -21 14 -2 5 -8 8 -13 4 -5 -3 -9 0 -9 6
0 6 -4 8 -10 5 -5 -3 -10 -1 -10 5 0 6 -4 8 -10 5 -5 -3 -10 -1 -10 5 0 7 -7
9 -16 6 -8 -3 -12 -2 -9 4 6 10 3 11 -33 14 -11 0 -26 7 -35 14 -9 8 -21 11
-27 7 -5 -3 -13 1 -16 10 -4 9 -14 15 -23 14 -34 -3 -51 1 -48 14 1 7 -7 11
-22 9 -13 -2 -27 1 -30 7 -4 6 -22 12 -41 13 -19 2 -38 7 -41 11 -3 5 -21 9
-38 11 -18 1 -36 7 -39 13 -4 5 -24 9 -44 9 -21 -1 -38 1 -38 4 0 13 -49 27
-64 18 -10 -6 -16 -5 -16 2 0 8 -6 8 -20 0 -11 -6 -20 -7 -20 -2 0 14 -88 31
-94 18 -2 -6 -5 -6 -5 -1 -1 12 -92 12 -111 0 -8 -5 -11 -4 -7 2 4 6 -1 17
-10 24 -14 12 -16 12 -8 0 6 -11 5 -12 -6 -5 -16 10 -329 12 -329 2z m285
-404 c11 -6 56 -10 100 -10 60 1 83 -3 93 -14 8 -8 11 -9 7 -3 -4 9 -1 11 9 7
9 -3 16 -11 16 -17 0 -8 4 -7 12 1 8 8 17 8 31 1 15 -8 18 -8 12 1 -6 9 -3 9
12 1 11 -6 23 -7 27 -4 3 3 6 1 6 -5 0 -6 8 -10 18 -10 26 1 72 -10 85 -20 7
-5 21 -8 31 -6 10 1 25 -4 34 -12 8 -8 21 -13 30 -9 18 7 44 -13 35 -28 -4 -6
-1 -7 8 -1 22 13 40 14 45 0 2 -6 17 -13 32 -14 15 -1 29 -7 30 -12 2 -6 15
-10 28 -10 14 0 24 -6 24 -15 0 -9 6 -12 15 -9 8 3 22 -1 31 -10 8 -9 20 -14
25 -10 5 3 12 -1 15 -10 3 -8 14 -13 25 -11 10 2 19 0 19 -5 0 -5 20 -19 45
-31 25 -12 45 -26 45 -31 0 -4 7 -8 15 -8 8 0 15 -5 15 -11 0 -6 6 -9 13 -6 6
2 24 -8 39 -24 14 -15 29 -25 32 -22 2 3 14 -1 25 -9 12 -8 18 -18 14 -21 -6
-7 21 -11 41 -8 5 1 4 -5 -3 -13 -11 -13 -9 -15 9 -11 13 2 20 2 17 -2 -7 -6
70 -73 85 -73 5 0 6 -4 3 -10 -3 -5 1 -10 10 -10 9 0 13 -4 10 -10 -3 -5 1
-10 10 -10 8 0 19 -8 22 -17 9 -22 49 -63 61 -63 6 0 13 -7 16 -16 3 -8 11
-12 17 -8 8 4 9 3 5 -4 -4 -6 2 -20 13 -31 11 -11 16 -23 13 -27 -4 -4 1 -4
11 -1 15 6 22 -3 18 -25 0 -5 4 -8 10 -8 5 0 7 -5 3 -12 -4 -6 -3 -8 4 -4 12
7 52 -31 52 -51 0 -7 5 -13 11 -13 5 0 7 -4 4 -10 -3 -5 0 -10 7 -10 8 0 22
-13 31 -30 10 -16 14 -30 8 -30 -6 0 -7 -7 -4 -17 4 -11 3 -14 -5 -9 -7 4 -12
2 -12 -4 0 -6 -30 -41 -67 -78 -38 -36 -67 -70 -65 -75 1 -5 -2 -6 -7 -2 -6 3
-15 -3 -21 -14 -6 -12 -16 -18 -25 -15 -8 4 -15 1 -15 -5 0 -6 -7 -11 -15 -11
-8 0 -14 -3 -13 -7 5 -15 -46 -63 -64 -63 -11 0 -16 -4 -13 -10 3 -5 1 -10 -6
-10 -6 0 -22 -12 -35 -26 -13 -14 -28 -23 -33 -19 -5 3 -16 -4 -24 -16 -8 -11
-22 -21 -30 -23 -9 -1 -26 -11 -38 -22 -15 -12 -20 -14 -15 -4 4 8 0 6 -8 -4
-9 -11 -16 -16 -16 -11 0 4 -8 -2 -19 -14 -11 -13 -25 -19 -35 -15 -11 4 -16
1 -16 -12 0 -9 -3 -14 -6 -11 -4 3 -16 0 -28 -8 -11 -8 -28 -15 -38 -15 -10 0
-18 -7 -18 -17 0 -14 -2 -15 -9 -4 -7 11 -13 9 -30 -8 -12 -12 -21 -16 -21 -8
0 9 -3 8 -9 -2 -5 -8 -14 -10 -22 -6 -8 6 -11 4 -7 -7 5 -11 0 -14 -18 -12
-14 1 -24 -3 -24 -10 0 -8 -11 -12 -27 -11 -16 0 -34 -5 -41 -12 -7 -7 -25
-13 -39 -13 -18 0 -24 -4 -20 -15 5 -11 1 -12 -17 -5 -13 5 -27 6 -31 2 -4 -4
-10 -7 -13 -7 -4 -1 -16 -5 -27 -11 -11 -6 -32 -9 -48 -8 -15 2 -25 -1 -22 -7
6 -9 3 -11 -42 -13 -16 -1 -35 -6 -43 -11 -8 -5 -37 -10 -64 -12 -27 -1 -52
-7 -56 -13 -4 -7 -18 -11 -31 -10 -60 5 -130 -1 -124 -10 8 -12 -23 -8 -49 6
-11 7 -19 24 -21 45 -4 47 -15 79 -29 79 -7 0 -6 4 2 9 16 9 18 21 5 30 -20
15 -32 48 -20 60 8 8 8 11 -1 11 -7 0 -12 7 -12 15 0 8 -4 15 -10 15 -6 0 -6
9 0 25 9 24 4 29 -21 27 -3 -1 -6 5 -6 13 0 8 5 12 10 8 5 -3 4 4 -2 14 -6 11
-7 23 -4 27 3 3 1 6 -6 6 -7 0 -9 5 -6 10 3 6 1 10 -5 10 -7 0 -9 8 -5 19 3
12 0 21 -10 25 -9 3 -15 11 -14 18 3 29 -2 49 -11 43 -6 -4 -10 -3 -9 2 5 28
-2 73 -11 68 -10 -6 -14 7 -11 33 1 6 -3 12 -9 12 -5 0 -10 6 -10 13 0 7 -5
18 -12 25 -10 10 -14 23 -20 70 -1 6 -6 12 -11 12 -5 0 -7 7 -4 15 4 8 1 17
-5 21 -7 5 -8 2 -3 -6 6 -9 4 -11 -4 -5 -7 4 -11 16 -8 26 3 11 1 19 -5 19 -5
0 -6 5 -3 10 3 6 2 10 -4 10 -5 0 -11 10 -13 23 -2 12 -9 21 -15 20 -7 -2 -10
6 -8 19 3 12 -3 26 -13 34 -9 7 -14 15 -10 19 4 4 -2 17 -13 28 -14 16 -16 23
-7 29 12 7 4 12 -14 9 -5 0 -8 6 -8 14 0 9 -7 27 -16 40 -9 14 -13 25 -9 25 3
0 -1 7 -9 16 -9 8 -14 20 -11 25 4 5 -2 9 -11 9 -10 0 -14 3 -11 6 8 8 -33 84
-45 84 -5 0 -6 5 -2 11 3 6 0 15 -7 20 -8 4 -14 16 -14 26 0 10 -6 17 -13 15
-8 -1 -11 2 -7 8 3 5 0 13 -9 16 -8 3 -12 12 -9 20 3 8 0 14 -7 14 -6 0 -9 4
-6 9 4 5 3 11 -1 13 -14 6 -53 67 -53 83 0 9 -4 13 -10 10 -5 -3 -11 -1 -11 4
-1 6 -2 16 -3 21 0 6 -8 15 -16 20 -8 5 -10 10 -5 10 6 0 3 5 -5 10 -8 5 -16
19 -16 31 -1 17 3 20 22 16 13 -2 24 0 24 6 0 6 3 8 6 4 4 -3 14 1 22 10 11
10 17 12 20 4 2 -7 10 -8 20 -2 9 4 28 7 42 6 14 -1 28 2 32 8 3 6 47 11 100
11 56 0 98 4 105 11 14 15 220 14 248 -1z m-1040 -224 c8 0 17 -9 20 -20 4
-11 11 -18 16 -15 5 4 9 -4 9 -17 0 -13 9 -30 20 -38 11 -8 20 -22 20 -31 0
-10 4 -19 9 -21 5 -1 11 -10 13 -18 2 -8 11 -22 20 -31 9 -8 18 -22 20 -29 2
-8 11 -23 20 -33 9 -11 14 -25 11 -33 -3 -8 1 -14 10 -14 16 0 32 -27 28 -47
-1 -7 2 -13 8 -13 11 0 41 -56 41 -77 0 -8 5 -11 10 -8 9 6 14 -8 11 -27 0 -5
4 -8 10 -8 5 0 8 -4 4 -9 -3 -5 -1 -12 5 -16 6 -4 8 -10 5 -15 -3 -4 2 -11 11
-14 8 -3 12 -10 9 -16 -3 -5 -1 -10 5 -10 6 0 8 -4 5 -10 -3 -5 -1 -10 5 -10
6 0 8 -4 5 -10 -3 -5 0 -10 8 -10 7 0 14 -6 15 -12 3 -32 10 -50 23 -59 11 -7
11 -9 1 -9 -10 0 -10 -4 2 -16 15 -14 20 -28 17 -46 0 -5 5 -8 13 -8 8 0 12
-9 11 -25 -2 -17 2 -25 12 -25 10 0 14 -6 10 -20 -3 -12 1 -23 9 -28 8 -5 16
-18 17 -30 1 -12 8 -22 17 -22 13 0 13 -1 0 -10 -8 -5 -10 -10 -3 -10 6 0 9
-9 5 -22 -3 -14 -2 -19 6 -14 11 7 16 -7 15 -41 -1 -7 3 -10 8 -7 5 3 10 -4
10 -15 3 -39 5 -46 15 -44 6 1 11 -10 10 -25 -1 -15 5 -33 12 -40 7 -8 10 -18
7 -23 -4 -5 0 -9 7 -9 9 0 9 -3 -2 -10 -13 -9 -13 -10 0 -11 8 -1 19 -1 23 0
5 1 6 -3 2 -9 -8 -13 4 -72 14 -66 4 3 7 -12 7 -32 -1 -20 4 -36 9 -35 6 1 10
-13 10 -30 -2 -40 4 -59 17 -51 6 4 8 -6 5 -24 -3 -18 1 -39 9 -49 7 -10 14
-32 14 -48 0 -17 4 -35 10 -41 5 -5 11 -32 12 -61 2 -28 6 -49 9 -47 10 6 15
-16 14 -68 -1 -26 3 -44 7 -42 8 5 9 1 13 -81 2 -27 4 -51 4 -52 1 -2 1 -6 0
-10 0 -3 6 -10 15 -15 9 -5 13 -14 9 -20 -10 -17 -10 -128 0 -128 5 0 4 -6 -2
-14 -9 -11 -9 -16 0 -22 8 -5 9 -3 4 6 -5 9 -4 11 3 6 7 -4 9 -18 6 -33 -5
-18 -3 -24 4 -19 8 5 10 1 6 -9 -5 -13 -9 -13 -23 -3 -13 10 -13 9 1 -8 14
-16 15 -23 5 -34 -7 -8 -8 -11 -1 -7 7 4 15 0 18 -9 3 -8 2 -13 -3 -10 -5 3
-8 -5 -7 -19 0 -14 5 -25 9 -25 4 0 4 -7 0 -15 -5 -8 -6 -40 -3 -72 4 -42 1
-65 -10 -83 -10 -16 -11 -22 -2 -17 6 5 12 4 12 0 0 -5 -6 -15 -12 -22 -10
-11 -10 -13 0 -7 7 5 12 1 12 -9 0 -9 -4 -14 -9 -10 -5 3 -13 1 -16 -5 -4 -6
-1 -9 6 -8 6 2 14 -3 17 -11 3 -10 0 -11 -9 -5 -12 6 -12 5 -1 -8 10 -12 9
-18 -3 -28 -12 -10 -13 -16 -4 -26 6 -8 7 -14 2 -14 -11 0 -11 -29 1 -48 4 -6
3 -12 -2 -12 -4 0 -8 -16 -7 -35 1 -18 -3 -36 -10 -38 -7 -3 -11 -25 -10 -58
1 -30 -3 -63 -9 -74 -5 -11 -11 -40 -13 -64 -1 -25 -8 -48 -14 -52 -7 -4 -9
-16 -6 -28 3 -12 1 -24 -4 -27 -5 -3 -7 -9 -4 -14 3 -5 1 -11 -5 -15 -5 -3
-10 -19 -10 -36 0 -16 -5 -29 -11 -29 -5 0 -7 -4 -4 -10 3 -5 2 -10 -3 -10 -5
0 -8 -11 -7 -25 2 -14 -2 -25 -8 -25 -5 0 -7 -3 -4 -7 4 -3 2 -12 -4 -20 -6
-7 -8 -13 -4 -13 4 0 1 -10 -7 -22 -8 -13 -14 -30 -13 -38 0 -8 -3 -18 -7 -21
-5 -3 -10 -16 -13 -28 -2 -13 -10 -30 -17 -39 -11 -13 -11 -14 1 -7 9 5 6 -5
-7 -22 -12 -17 -19 -33 -15 -37 3 -3 1 -6 -6 -6 -7 0 -9 -5 -6 -11 4 -6 -1
-17 -11 -25 -11 -9 -12 -12 -4 -8 10 5 8 -1 -5 -16 -12 -14 -14 -20 -5 -15 11
6 10 3 -2 -12 -10 -11 -18 -25 -18 -32 0 -7 -5 -9 -10 -6 -6 4 -10 3 -9 -2 4
-21 -2 -56 -8 -50 -8 9 -33 -40 -33 -64 0 -11 -7 -19 -15 -19 -8 0 -14 -3 -14
-8 4 -21 -2 -32 -13 -26 -8 5 -9 2 -5 -9 4 -10 0 -20 -11 -26 -9 -6 -13 -11
-9 -11 4 0 3 -8 -2 -19 -8 -14 -21 -18 -53 -17 -24 1 -42 6 -41 12 1 6 -10 10
-25 9 -31 -2 -54 4 -48 14 2 3 -10 7 -27 8 -17 1 -34 7 -37 14 -4 6 -13 10
-21 9 -27 -4 -40 0 -34 10 3 6 -5 10 -18 10 -14 0 -28 7 -31 16 -3 8 -10 13
-15 10 -14 -9 -42 5 -34 17 4 6 1 7 -7 2 -7 -4 -15 -2 -20 4 -4 7 -16 13 -28
14 -12 0 -24 7 -27 15 -3 8 -12 11 -21 8 -11 -4 -18 1 -21 14 -3 11 -9 17 -14
14 -11 -7 -60 26 -54 37 3 4 -3 6 -14 4 -11 -2 -29 7 -42 21 -20 21 -21 28
-11 44 9 15 9 20 1 20 -7 0 -2 9 11 20 15 13 18 20 9 20 -8 0 -10 3 -4 8 6 4
10 16 10 27 0 11 5 19 11 18 6 -1 10 12 9 32 -2 21 2 33 9 32 6 -1 11 11 11
30 0 17 3 29 7 27 10 -6 18 27 14 53 -4 17 -1 20 11 16 12 -5 15 -2 10 10 -4
10 -1 17 6 17 8 0 6 4 -3 10 -11 7 -11 10 -2 10 7 0 10 5 7 10 -4 6 -2 17 4
24 6 7 13 31 15 52 3 22 5 43 5 47 1 5 5 6 9 3 5 -3 8 9 7 27 -1 18 3 38 9 46
9 12 8 13 -4 7 -10 -5 -10 -3 2 6 10 9 16 27 14 52 -1 21 2 40 6 43 5 2 6 9 3
14 -4 5 -2 9 4 9 5 0 8 11 6 25 -1 14 2 25 7 25 5 0 4 8 -1 18 -7 13 -6 23 2
32 9 10 9 11 -2 5 -8 -5 -6 3 5 21 11 15 13 25 7 21 -7 -5 -13 -4 -13 2 0 6 5
11 11 11 6 0 9 6 6 14 -3 8 -3 17 0 20 9 9 9 116 -1 116 -5 0 -3 7 4 15 10 12
10 18 -1 32 -12 15 -12 16 1 8 13 -8 13 -7 1 8 -7 9 -9 17 -4 17 10 0 9 97 -1
107 -3 4 2 15 11 26 10 11 13 17 6 13 -9 -5 -12 6 -9 44 1 29 -2 50 -8 50 -5
0 -1 7 10 16 10 8 13 12 6 9 -11 -6 -12 1 -8 29 4 22 2 36 -5 36 -5 0 -7 5 -3
12 12 18 14 58 4 58 -6 0 -6 10 -1 23 5 13 5 30 1 37 -5 9 -4 20 2 27 7 9 7
13 0 13 -5 0 -13 7 -16 16 -4 10 -2 13 7 8 9 -6 9 -5 0 8 -7 8 -10 18 -6 21 3
4 1 7 -5 7 -7 0 -8 10 -2 29 4 16 6 32 3 35 -4 3 -7 18 -8 33 -1 16 -7 27 -12
26 -12 -3 -12 15 0 34 4 6 3 14 -3 18 -5 3 -10 11 -10 16 0 6 4 8 9 5 5 -4 4
5 -2 19 -7 14 -15 25 -18 25 -4 0 -6 18 -5 40 1 27 -2 40 -11 40 -7 0 -10 7
-7 15 4 9 0 15 -7 15 -11 0 -11 2 0 9 12 8 12 12 2 25 -11 13 -11 16 0 16 11
1 10 4 -3 13 -9 7 -18 28 -19 47 -2 19 -9 41 -15 47 -7 7 -10 21 -7 31 3 12
-2 22 -10 25 -10 4 -13 13 -10 27 3 11 -1 28 -9 38 -8 9 -14 24 -13 32 0 8 -5
21 -12 28 -6 7 -10 21 -8 32 2 12 -3 21 -16 25 -16 5 -18 10 -8 21 8 10 8 14
0 14 -6 0 -11 9 -11 20 0 11 -5 20 -12 20 -6 0 -9 3 -5 6 3 4 0 19 -8 34 -8
15 -11 30 -8 34 4 3 0 6 -8 6 -9 0 -16 11 -17 28 -1 15 -7 29 -12 30 -6 2 -10
12 -10 23 0 10 -5 19 -11 19 -5 0 -8 4 -4 9 3 5 -2 16 -10 24 -8 9 -15 22 -15
30 0 8 -7 18 -16 21 -8 3 -12 10 -9 16 3 6 -1 17 -9 26 -9 9 -14 19 -11 24 3
4 -2 10 -10 14 -8 3 -15 15 -15 26 0 11 -7 20 -16 20 -8 0 -12 5 -9 11 4 6 -2
20 -13 32 -11 12 -23 32 -27 45 -3 12 -11 20 -16 16 -5 -3 -9 -2 -8 3 4 12
-23 63 -33 63 -4 0 -8 7 -8 15 0 8 -4 15 -10 15 -5 0 -10 5 -10 11 0 6 -7 17
-15 26 -14 14 -14 18 0 39 22 35 83 93 89 86 3 -3 6 2 6 11 0 10 7 17 15 17 9
0 31 16 51 35 19 19 40 35 46 35 6 0 8 3 5 6 -8 8 31 39 60 48 12 4 25 16 28
27 4 10 10 17 15 14 4 -3 11 2 14 11 5 14 9 14 23 3 12 -10 15 -10 9 -1 -4 7
-1 15 8 18 9 3 13 10 10 15 -3 5 2 10 10 10 28 2 31 4 46 17 35 30 92 62 101
57 5 -4 9 0 9 8 0 10 7 13 20 10 15 -4 20 0 21 13 0 11 3 14 6 7 2 -7 11 -13
18 -13z m-868 -806 c-4 -4 3 -15 15 -25 11 -11 18 -19 13 -19 -4 0 -2 -6 4
-13 6 -8 8 -16 5 -19 -3 -3 7 -15 22 -27 15 -11 21 -21 15 -21 -7 0 -9 -5 -6
-11 4 -6 13 -8 20 -5 9 3 11 -2 7 -16 -3 -13 1 -24 12 -30 11 -6 15 -16 11
-29 -5 -14 -2 -19 11 -19 10 0 14 -3 11 -7 -4 -3 -1 -13 6 -21 10 -13 9 -15
-3 -8 -8 4 -6 0 5 -9 11 -9 19 -21 17 -27 -1 -6 5 -17 15 -25 10 -8 12 -11 4
-8 -9 5 -8 -1 4 -19 10 -14 14 -26 9 -26 -4 0 1 -7 12 -16 10 -8 12 -13 4 -9
-10 4 -9 2 2 -8 10 -8 14 -17 10 -21 -4 -4 1 -12 11 -17 9 -6 15 -14 12 -19
-3 -5 -1 -19 5 -30 6 -12 13 -31 15 -42 3 -12 10 -25 16 -29 7 -4 9 -14 6 -23
-3 -8 1 -22 10 -31 9 -9 13 -26 10 -40 -3 -17 0 -25 9 -25 12 0 18 -31 13 -66
0 -4 5 -10 12 -15 7 -4 13 -26 13 -48 1 -22 6 -43 12 -45 7 -3 11 -21 9 -41
-1 -19 3 -38 8 -42 6 -4 7 -1 2 7 -5 8 -4 11 3 6 6 -4 8 -14 5 -23 -5 -12 -3
-14 7 -8 10 6 11 4 4 -6 -11 -18 -14 -39 -6 -39 4 0 7 -15 7 -32 0 -24 4 -32
15 -30 12 3 12 1 3 -9 -9 -9 -10 -16 -2 -26 9 -9 8 -17 -1 -28 -10 -12 -10
-15 1 -15 11 0 11 -2 -1 -10 -8 -5 -10 -10 -5 -10 6 0 10 -12 10 -27 -1 -16 3
-37 9 -48 11 -23 15 -435 4 -441 -4 -3 -4 -15 1 -27 9 -27 7 -105 -4 -115 -5
-4 -5 -1 0 7 6 10 4 12 -4 6 -7 -4 -11 -18 -8 -31 2 -14 0 -27 -5 -30 -4 -3
-5 -10 -1 -17 10 -16 10 -57 0 -57 -4 0 -6 -4 -2 -9 3 -5 0 -13 -6 -16 -5 -4
-8 -13 -5 -20 2 -7 2 -16 -2 -20 -11 -10 -9 -49 3 -58 6 -5 3 -12 -8 -21 -12
-9 -19 -29 -20 -54 -1 -21 -7 -45 -13 -53 -6 -8 -11 -25 -9 -39 1 -14 -5 -35
-12 -47 -8 -12 -12 -27 -8 -33 3 -5 1 -10 -6 -10 -8 0 -7 -5 2 -17 10 -12 10
-14 1 -9 -13 8 -22 -7 -25 -45 -1 -13 -8 -33 -14 -44 -6 -11 -11 -23 -12 -27
-1 -5 -3 -8 -6 -8 -3 0 -12 0 -21 0 -9 0 -14 6 -12 12 5 15 -15 38 -33 38 -7
0 -9 3 -6 7 4 3 -6 19 -22 34 -16 15 -27 30 -23 33 3 3 -2 6 -11 6 -9 0 -17 7
-17 15 0 8 -4 15 -10 15 -5 0 -6 7 -3 17 4 11 3 14 -6 9 -8 -5 -14 -1 -18 13
-3 12 -11 21 -19 21 -8 0 -11 6 -8 15 4 9 0 15 -10 15 -9 0 -13 6 -10 14 3 7
-2 16 -11 20 -9 3 -13 10 -10 16 3 5 -2 10 -11 10 -10 0 -14 3 -11 6 11 11
-13 45 -26 37 -9 -5 -9 -3 0 8 10 12 9 18 -7 29 -10 7 -16 18 -13 23 3 5 1 12
-5 16 -6 3 -12 13 -14 21 -2 8 -10 21 -18 28 -9 8 -10 11 -2 7 11 -6 11 -3 1
13 -7 12 -17 18 -21 16 -4 -3 -8 9 -8 25 0 20 -5 31 -14 31 -9 0 -12 7 -9 20
3 11 0 20 -6 20 -6 0 -11 8 -11 18 0 10 -7 27 -15 38 -8 12 -12 24 -9 27 3 3
-2 17 -11 31 -10 14 -15 33 -12 41 4 8 -1 19 -11 24 -9 5 -14 13 -10 17 5 4 3
13 -3 21 -9 9 -8 13 0 13 8 0 8 4 -1 14 -7 8 -17 12 -21 9 -5 -3 -4 4 2 15 8
14 8 23 1 27 -6 4 -8 15 -5 25 3 10 0 20 -8 23 -7 3 -12 19 -12 38 1 19 -4 45
-10 59 -6 14 -11 40 -10 58 0 17 -4 32 -10 32 -7 0 -7 3 0 8 14 9 13 31 0 40
-6 4 -11 30 -10 57 0 28 -4 53 -10 57 -7 5 -7 8 0 8 6 0 9 62 9 168 -2 166 1
206 14 198 4 -2 7 23 6 57 0 68 4 90 16 82 5 -3 7 3 5 12 -1 10 2 24 8 31 6 8
6 12 -1 12 -15 0 -9 25 11 45 11 10 14 22 9 29 -13 17 -8 41 8 38 11 -3 12 -1
4 8 -9 9 -8 18 2 38 8 15 14 35 14 45 0 9 5 17 11 17 6 0 8 8 4 19 -3 12 0 21
9 24 9 4 13 15 11 26 -2 12 2 26 9 33 7 7 13 15 13 18 1 19 16 50 24 50 6 0 8
4 5 9 -3 5 1 21 9 37 7 15 12 31 9 36 -3 4 0 8 5 8 6 0 11 7 11 15 0 7 8 19
18 24 9 6 13 11 9 11 -4 0 -3 9 3 20 6 12 16 18 23 14 8 -5 8 -2 -1 7 -10 11
-8 17 10 31 23 17 38 24 25 12z m3718 -276 c-2 -10 0 -16 6 -13 9 6 12 -3 12
-37 0 -10 3 -18 8 -18 5 0 13 -10 20 -21 8 -15 8 -19 0 -15 -16 10 -13 -10 4
-27 8 -8 11 -17 8 -21 -4 -3 -1 -6 7 -6 10 0 10 -3 1 -14 -8 -10 -9 -16 -1
-21 6 -3 8 -11 5 -16 -4 -5 0 -9 7 -9 14 0 17 -48 3 -70 -5 -8 -4 -11 3 -6 16
10 26 -14 27 -64 1 -25 5 -44 11 -43 5 1 10 -30 10 -70 1 -48 5 -72 14 -75 9
-3 9 -6 -1 -13 -10 -6 -11 -9 -1 -9 17 0 15 -27 -4 -34 -8 -3 -12 -11 -9 -17
4 -5 -1 -19 -11 -30 -9 -10 -13 -19 -9 -19 5 0 0 -7 -11 -15 -10 -8 -16 -15
-12 -15 4 0 -3 -10 -15 -23 -12 -13 -25 -22 -30 -19 -4 2 -7 0 -6 -5 3 -20 -2
-34 -11 -28 -6 3 -7 -1 -4 -9 4 -11 0 -16 -10 -16 -9 0 -16 -7 -16 -15 0 -9
-7 -18 -16 -22 -8 -3 -13 -12 -10 -19 3 -9 0 -11 -11 -7 -11 4 -14 2 -9 -5 4
-7 2 -12 -3 -12 -6 0 -11 -7 -11 -15 0 -8 -7 -15 -16 -15 -8 0 -13 -4 -10 -8
6 -10 -30 -43 -38 -35 -3 4 -6 -1 -6 -10 0 -9 -7 -17 -17 -17 -9 0 -13 -3 -10
-6 10 -10 -34 -45 -46 -37 -6 3 -7 1 -3 -5 4 -7 1 -12 -9 -12 -9 0 -14 -4 -11
-9 3 -5 -4 -11 -15 -14 -13 -4 -18 -10 -13 -18 4 -7 3 -10 -4 -5 -6 3 -23 -5
-39 -19 -74 -66 -111 -95 -122 -95 -6 0 -20 -9 -31 -20 -12 -12 -25 -18 -30
-15 -5 3 -15 -4 -24 -16 -9 -14 -21 -19 -31 -15 -9 3 -14 2 -11 -3 7 -10 -22
-23 -34 -16 -5 3 -11 -3 -15 -14 -4 -13 -13 -18 -25 -16 -11 2 -20 0 -20 -5 0
-5 -11 -12 -25 -16 -14 -3 -25 -10 -25 -16 0 -5 -5 -6 -10 -3 -6 3 -17 -1 -26
-10 -9 -9 -23 -14 -30 -11 -8 3 -14 -1 -14 -8 0 -9 -10 -13 -30 -12 -19 1 -30
-3 -30 -11 0 -7 -11 -13 -24 -13 -14 0 -31 -6 -38 -12 -7 -7 -22 -13 -33 -13
-11 0 -25 -4 -31 -10 -7 -6 -26 -10 -43 -9 -17 1 -28 -2 -25 -7 3 -5 -1 -10
-8 -10 -38 -4 -56 -8 -81 -18 -15 -6 -31 -10 -35 -10 -25 4 -62 -3 -58 -10 4
-5 -2 -8 -11 -6 -10 1 -26 -2 -35 -6 -10 -6 -19 -5 -23 1 -4 7 -12 7 -24 0
-10 -5 -21 -6 -25 -2 -4 3 -4 -1 -1 -10 6 -14 1 -15 -29 -8 -20 4 -34 5 -32 1
3 -4 -22 -6 -54 -5 -33 0 -57 -2 -55 -7 3 -4 1 -10 -5 -14 -5 -3 -10 -1 -10 5
0 6 -5 8 -11 4 -22 -13 -128 -11 -133 3 -3 7 -1 13 4 13 5 0 6 8 3 17 -5 13
-2 15 12 10 15 -6 16 -5 5 8 -10 11 -10 18 -1 29 9 10 9 16 1 21 -8 5 -8 10 0
20 8 10 8 15 -1 20 -8 6 -7 10 2 16 9 6 10 9 2 9 -11 0 -11 45 1 57 3 3 0 13
-7 21 -9 12 -9 16 0 19 8 3 9 12 5 26 -4 12 -7 79 -7 149 1 70 -3 122 -7 115
-5 -8 -8 -7 -9 6 -1 9 -2 23 -3 30 -1 6 3 15 9 19 6 5 6 8 0 8 -6 0 -10 29
-10 66 1 37 -4 72 -10 78 -6 6 -10 17 -9 24 1 6 2 16 3 22 0 5 7 7 15 4 7 -3
16 1 18 8 4 9 26 13 74 12 43 -1 75 4 84 12 8 7 33 11 55 9 43 -3 67 3 61 14
-3 4 12 6 32 6 20 -1 43 3 50 8 8 6 12 5 12 -4 0 -8 6 -5 15 7 8 10 15 15 15
11 0 -4 8 -3 18 2 13 7 22 7 30 -1 8 -8 13 -7 18 5 3 9 10 14 15 11 5 -3 9 -1
9 4 0 5 11 8 25 7 14 -2 25 0 25 5 0 4 7 11 16 14 10 4 13 2 8 -7 -5 -8 -2 -8
9 2 9 7 23 11 32 7 8 -3 14 0 12 7 -1 7 10 12 30 11 17 0 31 5 30 10 -1 6 5
11 13 11 8 0 18 5 22 10 5 6 8 4 8 -5 1 -12 3 -11 11 3 6 9 14 15 20 12 5 -4
9 -1 9 5 0 6 5 8 10 5 6 -3 13 1 16 9 4 12 11 13 24 6 13 -7 22 -4 35 10 10
11 21 17 25 15 4 -3 13 2 20 11 7 8 19 13 26 10 7 -3 15 2 18 10 3 8 15 14 26
14 11 0 20 5 20 10 0 6 3 9 8 8 4 -1 27 9 52 22 25 13 49 23 54 22 5 -2 6 4 3
12 -4 10 0 14 13 11 10 -2 21 3 24 12 4 8 13 13 21 9 9 -3 15 0 15 8 0 12 42
38 65 41 6 0 9 7 7 14 -1 7 2 10 8 6 5 -3 13 1 16 9 3 9 15 16 25 16 10 0 19
5 19 11 0 5 5 7 10 4 6 -3 10 1 10 9 0 9 6 16 14 16 8 0 16 7 20 15 3 8 11 14
18 13 7 -2 12 3 11 9 -2 7 0 12 5 12 19 -3 33 2 27 11 -3 6 1 10 9 10 9 0 16
7 16 16 0 8 4 13 9 9 6 -3 15 4 21 15 6 11 18 20 27 20 9 0 14 3 11 6 -7 7 45
63 53 58 4 -2 10 3 13 12 3 8 11 12 17 9 6 -4 13 2 15 12 7 25 33 26 29 1z
m88 -1354 c-3 -8 -10 -14 -15 -14 -6 0 -8 -7 -4 -15 3 -8 1 -15 -5 -15 -6 0
-8 -7 -5 -16 3 -8 2 -13 -3 -10 -13 8 -21 -18 -14 -45 4 -14 2 -20 -4 -16 -13
8 -23 -15 -18 -42 2 -12 -1 -20 -8 -18 -7 1 -12 -6 -12 -16 0 -10 -6 -22 -13
-26 -8 -5 -13 -11 -13 -15 4 -26 -1 -46 -9 -41 -6 4 -10 -5 -10 -19 0 -14 -4
-26 -9 -26 -5 0 -12 -11 -15 -25 -4 -14 -11 -25 -17 -25 -6 0 -7 -5 -3 -12 4
-6 -1 -17 -11 -25 -11 -7 -15 -13 -10 -13 4 0 1 -8 -8 -17 -15 -18 -17 -22
-17 -43 0 -5 -8 -10 -17 -10 -15 0 -16 -2 -3 -10 13 -9 13 -10 0 -11 -8 -1
-19 -1 -24 0 -5 1 -6 -5 -3 -13 4 -9 0 -22 -8 -30 -8 -7 -11 -16 -8 -20 4 -3
1 -6 -6 -6 -7 0 -9 -4 -6 -10 3 -5 1 -10 -5 -10 -6 0 -8 -4 -5 -10 3 -5 -1
-10 -9 -10 -9 0 -16 -7 -16 -15 0 -8 -6 -15 -14 -15 -9 0 -13 -7 -11 -20 2
-11 -1 -23 -7 -26 -7 -5 -8 -2 -4 7 4 8 0 5 -8 -5 -9 -11 -16 -23 -16 -28 0
-4 -7 -8 -15 -8 -8 0 -15 -6 -15 -14 0 -7 -8 -20 -17 -27 -15 -12 -16 -12 -8
1 5 9 5 12 -1 7 -5 -5 -9 -12 -9 -15 0 -15 -17 -32 -25 -27 -5 3 -7 -4 -5 -15
3 -18 -5 -25 -27 -21 -5 0 -7 -2 -7 -7 3 -20 -3 -31 -22 -37 -11 -4 -18 -9
-15 -12 7 -7 -19 -33 -33 -33 -6 0 -11 -6 -11 -14 0 -10 -8 -13 -21 -11 -12 3
-19 2 -16 -1 7 -8 -25 -44 -34 -38 -4 2 -10 -5 -14 -16 -3 -11 -13 -20 -21
-20 -8 0 -14 -7 -14 -17 0 -9 -3 -14 -6 -10 -3 3 -15 -3 -27 -14 -11 -10 -27
-19 -34 -19 -7 0 -13 -7 -13 -16 0 -8 -4 -12 -10 -9 -5 3 -10 1 -10 -4 0 -6
-12 -11 -26 -11 -14 0 -23 -4 -20 -8 8 -13 -24 -39 -61 -48 -13 -4 -23 -10
-23 -15 0 -5 -12 -14 -26 -19 -14 -6 -23 -14 -20 -19 3 -4 -6 -6 -21 -3 -18 3
-24 1 -19 -7 4 -6 4 -11 -1 -12 -29 -3 -47 -9 -53 -20 -5 -6 -15 -9 -24 -6 -9
4 -15 1 -13 -6 1 -7 -6 -12 -16 -12 -10 0 -25 -8 -32 -18 -9 -13 -15 -15 -20
-6 -6 8 -10 7 -17 -5 -5 -9 -17 -16 -27 -16 -10 0 -31 -7 -47 -14 -15 -8 -31
-13 -36 -10 -4 3 -11 -1 -14 -9 -3 -8 -16 -13 -30 -11 -13 1 -31 -4 -38 -12
-8 -8 -22 -11 -30 -8 -9 3 -16 1 -16 -5 0 -6 -7 -8 -15 -5 -8 4 -15 1 -15 -5
0 -6 -7 -8 -15 -5 -8 4 -15 1 -15 -6 0 -10 -3 -10 -15 0 -10 8 -15 9 -15 2 0
-7 -7 -9 -17 -5 -12 5 -14 3 -8 -7 6 -10 4 -12 -7 -7 -9 3 -19 3 -23 -1 -9
-10 -55 -10 -55 0 0 4 -5 8 -11 8 -5 0 -8 -4 -5 -9 11 -17 -79 -34 -101 -18
-6 4 -14 4 -17 -1 -3 -5 -19 -8 -36 -7 -16 1 -30 -2 -30 -7 0 -5 -4 -6 -10 -3
-5 3 -10 2 -10 -2 0 -5 -56 -9 -125 -9 -107 0 -125 2 -122 15 1 9 5 18 9 21 4
3 8 17 10 32 2 14 9 32 15 39 20 26 53 89 53 104 0 8 4 15 8 15 4 0 14 21 22
48 7 26 19 53 26 60 7 7 11 21 9 33 -2 11 2 22 10 26 8 3 13 9 10 13 -3 5 0
12 6 16 8 4 7 9 -2 15 -10 6 -7 9 11 9 18 0 21 3 11 9 -11 7 -10 14 8 40 12
17 17 31 11 31 -7 0 -8 6 -1 19 6 10 8 21 5 24 -3 3 0 8 7 13 8 5 10 3 4 -6
-5 -8 -4 -11 3 -6 6 3 9 20 7 36 -3 19 0 30 8 30 9 0 13 14 12 40 -1 24 4 41
12 44 8 4 12 15 9 31 -3 13 0 27 5 31 5 3 7 10 4 15 -4 5 -2 9 3 9 5 0 9 14
10 31 0 17 5 36 11 43 6 7 9 15 6 18 -3 2 2 5 10 5 8 0 11 -5 8 -11 -4 -6 1
-5 10 2 9 8 21 11 27 7 5 -3 10 0 10 7 0 8 3 9 8 3 9 -13 102 -14 102 -1 0 6
5 5 11 -1 12 -12 61 -2 85 18 8 6 14 7 14 2 0 -5 7 -10 15 -10 8 0 15 5 15 11
0 6 5 4 10 -4 5 -8 10 -10 10 -5 0 6 24 9 55 8 30 0 55 2 55 7 0 4 9 10 20 13
11 3 20 1 20 -5 0 -5 5 -6 12 -2 7 5 27 8 46 9 18 0 36 5 40 11 4 6 23 10 42
9 19 -1 41 4 48 11 7 8 26 12 42 10 17 -2 30 1 30 6 0 5 5 6 10 3 6 -3 10 -1
10 4 0 6 13 11 29 11 35 0 63 9 57 19 -3 4 11 5 31 3 25 -3 34 -1 29 7 -4 6
-2 12 3 12 26 3 30 4 37 11 4 4 13 3 21 -3 10 -9 13 -8 13 4 0 10 8 14 24 13
17 -2 23 1 19 10 -3 9 2 12 16 9 11 -2 23 1 26 6 4 5 11 7 16 4 5 -4 9 2 9 12
0 13 3 14 8 5 7 -9 14 -8 32 8 25 22 35 26 25 10 -4 -6 4 -5 19 1 14 7 24 15
21 18 -2 4 6 8 18 8 12 1 23 7 25 13 2 5 8 8 13 4 5 -3 9 -1 9 4 0 6 12 13 26
16 14 4 35 15 46 26 12 11 25 17 29 14 5 -2 16 3 26 13 10 10 25 18 33 18 8 0
14 6 13 13 -2 6 0 11 5 11 20 -3 32 2 26 13 -4 6 -3 8 4 4 6 -3 17 1 26 10 9
8 20 13 25 9 5 -3 13 0 17 6 5 8 3 9 -7 4 -10 -5 -11 -5 -4 3 6 6 17 12 24 14
8 2 26 14 39 28 14 14 28 24 33 23 5 -2 9 2 9 7 0 6 6 10 14 10 8 0 17 7 20
16 3 8 10 12 16 9 5 -3 10 0 10 7 0 7 16 24 35 37 19 13 35 27 35 31 0 5 9 6
19 3 12 -3 17 -11 14 -19z m-3779 -1180 c3 -8 2 -12 -4 -9 -6 3 -10 10 -10 16
0 14 7 11 14 -7z"/>
</g>
</svg>
